<svg width="92" height="92" viewBox="0 0 92 92" fill="none" xmlns="http://www.w3.org/2000/svg">
<path d="M24.0365 5.5821C14.1849 10.9356 6.62774 19.7028 2.7854 30.2361C-1.05693 40.7694 -0.919875 52.3434 3.17082 62.7827C7.26152 73.222 15.0242 81.8079 24.9998 86.9266C34.9754 92.0452 46.4771 93.3442 57.343 90.5794C68.209 87.8146 77.6911 81.1764 84.0071 71.9124C90.323 62.6484 93.0381 51.3965 91.6418 40.2716C90.2456 29.1466 84.8342 18.9147 76.4247 11.4988C68.0153 4.08298 57.1869 -0.0061486 45.9747 6.93228e-06L45.9769 4.05592C56.2005 4.05031 66.0742 7.77889 73.7421 14.5409C81.4101 21.3029 86.3443 30.6326 87.6175 40.7767C88.8906 50.9207 86.415 61.1804 80.6559 69.6276C74.8968 78.0748 66.2508 84.1277 56.3429 86.6487C46.435 89.1698 35.9475 87.9853 26.8514 83.318C17.7554 78.6506 10.6772 70.8218 6.94716 61.3029C3.21715 51.784 3.09218 41.2306 6.59573 31.626C10.0993 22.0215 16.9901 14.0273 25.9731 9.14583L24.0365 5.5821Z" fill="#0578B1"/>
</svg>
