<svg width="92" height="92" viewBox="0 0 92 92" fill="none" xmlns="http://www.w3.org/2000/svg">
<path d="M32.3159 2.08242C21.2468 5.53142 11.8883 13.0331 6.11315 23.0863C0.337953 33.1395 -1.428 45.0028 1.16866 56.3022C3.76533 67.6017 10.5331 77.5039 20.1177 84.0273C29.7022 90.5508 41.3967 93.2144 52.861 91.4852C64.3253 89.7559 74.7138 83.7613 81.9477 74.7009C89.1816 65.6406 92.7274 54.1827 91.8756 42.6201C91.0238 31.0574 85.8371 20.2429 77.3535 12.3405C68.8699 4.43802 57.7151 0.0305691 46.1212 3.74309e-05L46.1105 4.05594C56.6822 4.08378 66.8534 8.10261 74.589 15.3083C82.3246 22.5139 87.0539 32.3749 87.8307 42.9181C88.6074 53.4612 85.3742 63.9088 78.7781 72.1703C72.182 80.4318 62.7095 85.8978 52.2561 87.4746C41.8026 89.0514 31.1393 86.6227 22.3998 80.6744C13.6603 74.7261 7.48925 65.697 5.12155 55.3938C2.75384 45.0907 4.36408 34.2734 9.63006 25.1066C14.896 15.9398 23.4293 9.0996 33.5224 5.95471L32.3159 2.08242Z" fill="#0578B1"/>
</svg>
