<svg width="29" height="29" viewBox="0 0 29 29" fill="none" xmlns="http://www.w3.org/2000/svg">
<path d="M15.95 14.5L11.2375 9.78751C11.016 9.56598 10.9052 9.28404 10.9052 8.94167C10.9052 8.59931 11.016 8.31737 11.2375 8.09584C11.459 7.87431 11.741 7.76355 12.0833 7.76355C12.4257 7.76355 12.7076 7.87431 12.9292 8.09584L18.4875 13.6542C18.7292 13.8958 18.85 14.1778 18.85 14.5C18.85 14.8222 18.7292 15.1042 18.4875 15.3458L12.9292 20.9042C12.7076 21.1257 12.4257 21.2365 12.0833 21.2365C11.741 21.2365 11.459 21.1257 11.2375 20.9042C11.016 20.6826 10.9052 20.4007 10.9052 20.0583C10.9052 19.716 11.016 19.434 11.2375 19.2125L15.95 14.5Z" fill="white"/>
</svg>
